<?xml version="1.0" encoding="UTF-8" standalone="no"?>
<svg
   xmlns:dc="http://purl.org/dc/elements/1.1/"
   xmlns:cc="http://creativecommons.org/ns#"
   xmlns:rdf="http://www.w3.org/1999/02/22-rdf-syntax-ns#"
   xmlns:svg="http://www.w3.org/2000/svg"
   xmlns="http://www.w3.org/2000/svg"
   xmlns:xlink="http://www.w3.org/1999/xlink"
   xmlns:sodipodi="http://sodipodi.sourceforge.net/DTD/sodipodi-0.dtd"
   xmlns:inkscape="http://www.inkscape.org/namespaces/inkscape"
   version="1.1"
   viewBox="0 0 864 73.94"
   id="svg74"
   sodipodi:docname="twu_logo_full.svg"
   inkscape:version="1.0.1 (c497b03c, 2020-09-10)">
  <sodipodi:namedview
     pagecolor="#ffffff"
     bordercolor="#666666"
     borderopacity="1"
     objecttolerance="10"
     gridtolerance="10"
     guidetolerance="10"
     inkscape:pageopacity="0"
     inkscape:pageshadow="2"
     inkscape:window-width="1659"
     inkscape:window-height="1035"
     id="namedview76"
     showgrid="false"
     inkscape:zoom="4.2343685"
     inkscape:cx="88.155864"
     inkscape:cy="49.080322"
     inkscape:window-x="1304"
     inkscape:window-y="114"
     inkscape:window-maximized="0"
     inkscape:current-layer="svg74"
     inkscape:document-rotation="0" />
  <metadata
     id="metadata10">
    <rdf:RDF>
      <cc:Work
         rdf:about="">
        <dc:format>image/svg+xml</dc:format>
        <dc:type
           rdf:resource="http://purl.org/dc/dcmitype/StillImage" />
        <dc:title />
      </cc:Work>
    </rdf:RDF>
  </metadata>
  <defs
     id="defs17">
    <linearGradient
       inkscape:collect="always"
       id="linearGradient1702">
      <stop
         style="stop-color:#d3af6a;stop-opacity:1"
         offset="0"
         id="stop1694" />
      <stop
         style="stop-color:#af8f57;stop-opacity:1"
         offset="0.48794571"
         id="stop1698" />
      <stop
         style="stop-color:#d3af6a;stop-opacity:1"
         offset="1"
         id="stop1700" />
    </linearGradient>
    <style
       id="style12">.cls-1{fill:none;}.cls-2{clip-path:url(#clippath);}.cls-3{fill:#d0cdc9;}.cls-4{fill:#dfb69f;opacity:.28;}</style>
    <clipPath
       id="clippath">
      <path
         class="cls-1"
         d="M37.51,43.27h0c-21.19,21.19-11.44,30.14-11.32,30.49-23.73-14.72-9.9-34.8-1.43-43.27h0C45.85,9.4,36.19,.35,36.07,0c23.73,14.72,9.9,34.8,1.43,43.27ZM59.35,9.28c.12,.3,9.6,8.24-11.12,26.73h0c-8.32,7.42-21.9,25.02,1.41,37.93-.12-.3-9.7-8.15,11.12-26.73h0c8.32-7.42,21.9-25.02-1.41-37.93ZM21.07,21.35c-.61-3.36-3.53-7.19-9.01-11.99C16.92,19.25-2.18,26.49,.21,41.29c.61,3.36,3.53,7.19,9.01,11.99-4.86-9.89,14.24-17.13,11.86-31.93Z"
         id="path14" />
    </clipPath>
    <clipPath
       clipPathUnits="userSpaceOnUse"
       id="clipPath980">
      <rect
         style="opacity:1;fill:#000000;fill-opacity:0;stroke-width:1.1354"
         id="rect982"
         width="72.560555"
         height="73.965424"
         x="0"
         y="0" />
    </clipPath>
    <linearGradient
       inkscape:collect="always"
       xlink:href="#linearGradient1702"
       id="linearGradient1662"
       x1="-45.218594"
       y1="0.25665945"
       x2="-55.108593"
       y2="74.016663"
       gradientUnits="userSpaceOnUse"
       gradientTransform="translate(81.396118,-0.12768619)" />
  </defs>
  <path
     class="cls-3"
     d="m116.82 34.17v24.22h-4.89v-24.22h-9.12v-4.46h23.09v4.46h-9.08z"
     id="path19" />
  <path
     class="cls-3"
     d="M153.02,58.4l-6.26-10.33c-.51,.04-.98,.04-1.53,.04-.94,0-1.92-.04-2.86-.08v10.37h-4.89V29.99c2.27-.27,4.66-.47,7.55-.47,8.14,0,11.74,3.95,11.74,9.04,0,3.72-2.03,6.73-5.6,8.3l7.51,11.55h-5.67Zm-7.36-24.5c-1.17,0-2.31,.04-3.29,.23v9.78c.9,.12,1.88,.16,2.82,.16,4.27,0,6.42-2,6.42-5.28,0-2.9-2.19-4.89-5.95-4.89Z"
     id="path21" />
  <path
     class="cls-3"
     d="M169.85,58.4V29.71h4.89v28.69h-4.89Z"
     id="path23" />
  <path
     class="cls-3"
     d="M211.48,58.95l-17.96-18.94v18.39h-4.89V29.32l.78-.16,17.73,18.67V29.71h4.89v29.12l-.55,.12Z"
     id="path25" />
  <path
     class="cls-3"
     d="M225.92,58.4V29.71h4.89v28.69h-4.89Z"
     id="path27" />
  <path
     class="cls-3"
     d="m256.57 34.17v24.22h-4.89v-24.22h-9.12v-4.46h23.09v4.46h-9.08z"
     id="path29" />
  <path
     class="cls-3"
     d="m289.63 46.34v12.05h-4.89v-12.09l-10.1-16.59h5.6l7.04 12.13 6.97-12.13h5.48l-10.1 16.63z"
     id="path31" />
  <path
     class="cls-3"
     d="M353.81,58.87l-.78,.08-8.92-19.96-8.81,19.96-.74-.08-9.2-29.16h5.4l5.17,18.08,7.98-18.32h.55l8.02,18.2,5.09-17.96h5.32l-9.08,29.16Z"
     id="path33" />
  <path
     class="cls-3"
     d="M373.65,58.4V29.71h17.49v4.46h-12.6v7.51h11.39v4.31h-11.39v7.94h12.6v4.46h-17.49Z"
     id="path35" />
  <path
     class="cls-3"
     d="M411.18,58.87c-3.25,0-6.5-1.17-9-2.82l1.68-4.38c2.27,1.64,5.01,2.66,7.47,2.66,3.01,0,4.34-1.76,4.34-3.76s-.86-3.25-5.4-5.17c-5.01-2.11-6.81-4.7-6.81-8.14,0-4.15,3.44-8.02,9.43-8.02,2.78,0,5.52,.94,7.2,2.07l-1.57,4.31c-1.53-1.06-3.8-2.04-5.75-2.04-3.01,0-4.42,1.64-4.42,3.56s1.41,3.05,4.97,4.62c5.67,2.46,7.32,4.77,7.32,8.53,0,4.62-3.56,8.57-9.47,8.57Z"
     id="path37" />
  <path
     class="cls-3"
     d="m444.64 34.17v24.22h-4.89v-24.22h-9.12v-4.46h23.09v4.46h-9.08z"
     id="path39" />
  <path
     class="cls-3"
     d="M464.48,58.4V29.71h17.49v4.46h-12.6v7.51h11.39v4.31h-11.39v7.94h12.6v4.46h-17.49Z"
     id="path41" />
  <path
     class="cls-3"
     d="M509.96,58.4l-6.26-10.33c-.51,.04-.98,.04-1.53,.04-.94,0-1.92-.04-2.86-.08v10.37h-4.89V29.99c2.27-.27,4.66-.47,7.55-.47,8.14,0,11.74,3.95,11.74,9.04,0,3.72-2.03,6.73-5.6,8.3l7.51,11.55h-5.67Zm-7.36-24.5c-1.17,0-2.31,.04-3.29,.23v9.78c.9,.12,1.88,.16,2.82,.16,4.27,0,6.42-2,6.42-5.28,0-2.9-2.19-4.89-5.95-4.89Z"
     id="path43" />
  <path
     class="cls-3"
     d="M551.01,58.95l-17.96-18.94v18.39h-4.89V29.32l.78-.16,17.73,18.67V29.71h4.89v29.12l-.55,.12Z"
     id="path45" />
  <path
     class="cls-3"
     d="M591.51,58.87c-6.57,0-10.76-3.87-10.76-10.76V29.71h3.13v18.16c0,5.75,3.13,8.18,7.63,8.18s7.71-2.46,7.71-8.18V29.71h3.13v18.39c0,6.65-4.42,10.76-10.84,10.76Z"
     id="path47" />
  <path
     class="cls-3"
     d="M637.45,58.95l-18.63-22.31v21.76h-3.13V29.32l.63-.16,18.39,21.95V29.71h3.13v29.12l-.39,.12Z"
     id="path49" />
  <path
     class="cls-3"
     d="M651.74,58.4V29.71h3.13v28.69h-3.13Z"
     id="path51" />
  <path
     class="cls-3"
     d="M679.09,58.91h-.51l-12.76-29.19h3.52l9.59,22.7,9.51-22.7h3.4l-12.76,29.19Z"
     id="path53" />
  <path
     class="cls-3"
     d="M702.61,58.4V29.71h16.79v2.82h-13.66v9.9h12.29v2.82h-12.29v10.33h13.66v2.82h-16.79Z"
     id="path55" />
  <path
     class="cls-3"
     d="M748.48,58.4l-7.63-11.31c-.63,.04-1.25,.08-1.92,.08-.94,0-2.31-.04-3.25-.08v11.31h-3.13V29.99c2.11-.27,4.23-.47,6.61-.47,7.4,0,11.04,3.68,11.04,8.61,0,3.99-2.23,7.01-6.26,8.3l8.34,11.98h-3.8Zm-8.84-26.06c-1.33,0-2.94,.08-3.95,.31v11.66c.94,.12,2.39,.2,3.48,.2,5.36,0,7.67-2.47,7.67-6.18,0-3.37-2.5-5.99-7.2-5.99Z"
     id="path57" />
  <path
     class="cls-3"
     d="M770.9,58.87c-3.25,0-5.79-1.02-8.3-2.66l1.53-2.74c2.19,1.57,4.7,2.54,6.93,2.54,3.68,0,5.4-2.43,5.4-5.01s-.98-3.99-5.67-6.07c-4.97-2.19-6.81-4.42-6.81-7.87,0-4.15,3.52-7.83,8.77-7.83,2.43,0,4.74,.82,6.38,1.96l-1.41,2.66c-1.41-1.02-3.29-1.76-5.17-1.76-3.6,0-5.44,2.19-5.44,4.81,0,2,1.37,3.6,4.89,5.21,5.99,2.7,7.67,4.7,7.67,8.53,0,4.66-3.8,8.22-8.77,8.22Z"
     id="path59" />
  <path
     class="cls-3"
     d="M793.6,58.4V29.71h3.13v28.69h-3.13Z"
     id="path61" />
  <path
     class="cls-3"
     d="m821.19 32.53v25.87h-3.13v-25.87h-9.59v-2.82h22.27v2.82h-9.55z"
     id="path63" />
  <path
     class="cls-3"
     d="m853.9 45.68v12.72h-3.13v-12.76l-10.06-15.93h3.52l8.22 13.31 8.1-13.31h3.44l-10.1 15.97z"
     id="path65" />
  <path
     d="m 37.607524,43.398973 v 0 c -21.19,21.19 -11.44,30.14 -11.32,30.49 -23.730001,-14.72 -9.9,-34.8 -1.43,-43.27 v 0 c 21.09,-21.0900002 11.44,-30.13999979 11.32,-30.48999979 23.73,14.71999979 9.9,34.79999979 1.43,43.26999979 z m 21.84,-33.9900002 c 0.12,0.3 9.6,8.2400002 -11.12,26.7300002 v 0 c -8.32,7.42 -21.9,25.02 1.41,37.93 -0.12,-0.3 -9.7,-8.15 11.12,-26.73 v 0 c 8.32,-7.42 21.9,-25.02 -1.41,-37.9300002 z m -38.28,12.0700002 c -0.61,-3.36 -3.53,-7.19 -9.01,-11.9900002 4.86,9.8900002 -14.24,17.1300002 -11.860001,31.9300002 0.61,3.36 3.53,7.19 9.01,11.99 -4.86,-9.89 14.240001,-17.13 11.860001,-31.93 z"
     id="path1048"
     style="fill:url(#linearGradient1662);fill-opacity:1" />
</svg>
